HIERARCHY
ROOT root
{
	OFFSET	0	13.1	24.9
	CHANNELS 6  Xposition Yposition Zposition Xrotation Yrotation Zrotation
	JOINT spine_1
	{
		OFFSET	0	9.99999	0
		CHANNELS 3  Xrotation Yrotation Zrotation
		JOINT spine_2
		{
			OFFSET	0	112	-10
			CHANNELS 3  Xrotation Yrotation Zrotation
			JOINT spine_3
			{
				OFFSET	0	206.5	19.3
				CHANNELS 3  Xrotation Yrotation Zrotation
				JOINT spine_4
				{
					OFFSET	0	110.4	14.6
					CHANNELS 3  Xrotation Yrotation Zrotation
					JOINT neck_1
					{
						OFFSET	0	71.8	-50.3
						CHANNELS 3  Xrotation Yrotation Zrotation
						JOINT neck_2
						{
							OFFSET	0	86.2	-25.8
							CHANNELS 3  Xrotation Yrotation Zrotation
							JOINT head_ee
							{
								OFFSET	0	179.8	-8.7
								CHANNELS 3  Xrotation Yrotation Zrotation
								End Site
								{
									OFFSET	1	0	0
								}
							}
						}
					}
					JOINT left_clavicle
					{
						OFFSET	-43.2	22.4	-70.8
						CHANNELS 3  Xrotation Yrotation Zrotation
						JOINT left_shoulder
						{
							OFFSET	-93.9	-5.79999	48.7
							CHANNELS 3  Xrotation Yrotation Zrotation
							JOINT left_elbow
							{
								OFFSET	-291.4	-30.8	15.2
								CHANNELS 3  Xrotation Yrotation Zrotation
								JOINT left_lowarm_twist
								{
									OFFSET	-110.7	-3.89999	13.6
									CHANNELS 3  Xrotation Yrotation Zrotation
									JOINT left_hand
									{
										OFFSET	-110.7	-3.89999	13.6
										CHANNELS 3  Xrotation Yrotation Zrotation
										JOINT left_ee
										{
											OFFSET	-80.8	-5.10001	12.1
											CHANNELS 3  Xrotation Yrotation Zrotation
											End Site
											{
												OFFSET	1	0	0
											}
										}
									}
								}
							}
						}
					}
					JOINT right_clavicle
					{
						OFFSET	43.2	22.4	-70.8
						CHANNELS 3  Xrotation Yrotation Zrotation
						JOINT right_shoulder
						{
							OFFSET	93.9	-5.79999	48.7
							CHANNELS 3  Xrotation Yrotation Zrotation
							JOINT right_elbow
							{
								OFFSET	291.4	-30.8	15.2
								CHANNELS 3  Xrotation Yrotation Zrotation
								JOINT right_lowarm_twist
								{
									OFFSET	110.7	-3.89999	13.6
									CHANNELS 3  Xrotation Yrotation Zrotation
									JOINT right_hand
									{
										OFFSET	110.7	-3.89999	13.6
										CHANNELS 3  Xrotation Yrotation Zrotation
										JOINT right_ee
										{
											OFFSET	80.8	-5.10001	12.1
											CHANNELS 3  Xrotation Yrotation Zrotation
											End Site
											{
												OFFSET	1	0	0
											}
										}
									}
								}
							}
						}
					}
				}
			}
		}
	}
	JOINT left_hip
	{
		OFFSET	-82.8	-127.5	0.300001
		CHANNELS 3  Xrotation Yrotation Zrotation
		JOINT left_knee
		{
			OFFSET	-28.2	-396.7	2.2
			CHANNELS 3  Xrotation Yrotation Zrotation
			JOINT left_ankle
			{
				OFFSET	-11.7	-411.3	35.4
				CHANNELS 3  Xrotation Yrotation Zrotation
				JOINT left_toes
				{
					OFFSET	0	-60	-88.6
					CHANNELS 3  Xrotation Yrotation Zrotation
					JOINT left_foot_ee
					{
						OFFSET	-22.5	-16.5	-42.2
						CHANNELS 3  Xrotation Yrotation Zrotation
						End Site
						{
							OFFSET	1	0	0
						}
					}
				}
			}
		}
	}
	JOINT right_hip
	{
		OFFSET	82.8	-127.5	0.300001
		CHANNELS 3  Xrotation Yrotation Zrotation
		JOINT right_knee
		{
			OFFSET	28.2	-396.7	2.2
			CHANNELS 3  Xrotation Yrotation Zrotation
			JOINT right_ankle
			{
				OFFSET	11.7	-411.3	35.4
				CHANNELS 3  Xrotation Yrotation Zrotation
				JOINT right_toes
				{
					OFFSET	0	-60	-88.6
					CHANNELS 3  Xrotation Yrotation Zrotation
					JOINT right_foot_ee
					{
						OFFSET	22.5	-16.5	-42.2
						CHANNELS 3  Xrotation Yrotation Zrotation
						End Site
						{
							OFFSET	1	0	0
						}
					}
				}
			}
		}
	}
}
MOTION
Frames: 11
Frame Time: 0.02
3568.96 764.427 -349.283 0.0544464 52.6217 5.63532 -2.53503 -0.43392 -2.55722 -2.53143 -0.270374 -2.57962 -2.51478 0.390893 -2.56414 -2.52396 -0.018829 -2.59368 8.16165 14.5239 3.28883 8.77388 21.323 4.08338 -0.0 0.0 -0.0 7.20253 18.6679 13.1807 -5.65178 -28.6753 71.7309 1.01272 -26.641 0.239784 9.84491 0.241458 -1.23287 1.71517 2.12244 12.3778 -0.0 0.0 -0.0 1.94456 23.0375 -1.54076 -6.06283 28.2488 -63.758 0.899555 24.0181 -0.191358 5.48881 -0.160797 0.682406 -1.23262 -3.38179 6.74163 0.0 0.0 0.0 1.96951 19.0237 1.93426 -0.316456 0.0129012 0.0468497 23.699 12.6793 -3.19535 -2.17951 0.0 0.0 -0.0 0.0 -0.0 7.371 10.5858 -0.312248 -0.28967 -0.0118195 -0.0428815 -5.10405 2.61332 -0.76969 32.4442 -0.0 -0.0 0.0 0.0 0.0 
3566.1 762.506 -347.943 0.159289 52.0499 5.36163 -2.47718 -0.261708 -2.53915 -2.47359 -0.0996586 -2.55065 -2.46516 0.546718 -2.49339 -2.4738 0.146206 -2.5484 8.23927 14.5394 3.12295 8.86659 21.48 3.87678 -0.0 0.0 -0.0 7.2485 17.1014 13.3801 -6.16384 -28.5897 71.5476 0.980605 -25.9083 0.225569 10.1664 0.245749 -1.27372 1.69965 1.83621 12.1598 -0.0 0.0 -0.0 1.95903 23.8348 -1.48916 -6.45239 29.4318 -63.8038 0.840166 22.5966 -0.167859 5.72442 -0.166229 0.712013 -0.71294 -3.71096 3.15079 0.0 0.0 0.0 3.62499 17.1631 0.985972 -6.1251 0.203293 0.917594 24.4627 9.64331 -3.27248 -0.860766 0.0 0.0 -0.0 0.0 -0.0 7.29573 10.9828 0.0948976 -0.174411 -0.00714218 -0.0258121 -4.78157 6.76641 -0.733038 32.4295 -0.0 -0.0 0.0 0.0 0.0 
3559.83 761.85 -353.463 0.297798 51.658 5.24424 -2.39615 -0.273595 -2.44352 -2.39284 -0.117601 -2.45597 -2.38412 0.502036 -2.40701 -2.39218 0.115713 -2.45606 7.9286 14.6156 3.17092 8.55586 21.6429 3.95777 -0.0 0.0 -0.0 7.18848 17.2607 13.2708 -7.2605 -28.3854 70.8728 0.954549 -25.307 0.214307 10.1663 0.245747 -1.2737 1.70501 1.78077 12.1744 -0.0 0.0 -0.0 1.98096 23.7698 -1.54344 -6.38699 29.5338 -64.2579 0.880395 23.5628 -0.183629 5.74318 -0.166656 0.714371 -0.705279 -3.63326 3.13394 0.0 0.0 0.0 3.07234 17.323 1.12805 -5.55697 0.188582 0.831648 24.7143 9.44125 -3.30134 -0.902317 0.0 0.0 -0.0 0.0 -0.0 7.24226 10.7266 -0.10742 -0.541206 -0.0219063 -0.0801648 -4.75123 6.60465 -0.727781 32.474 -0.0 -0.0 0.0 0.0 0.0 
3554.47 760.925 -351.261 -0.121354 51.5457 5.33913 -2.20014 -0.259403 -2.35874 -2.19706 -0.108827 -2.37046 -2.18928 0.481169 -2.32368 -2.1968 0.108256 -2.37048 8.29225 14.5745 3.19462 8.91876 21.4607 3.95902 -0.0 0.0 -0.0 7.17157 18.3769 13.1557 -7.87061 -28.2171 70.6497 0.93845 -24.9324 0.207473 10.1345 0.245333 -1.26966 1.70038 1.82961 12.1621 -0.0 0.0 -0.0 1.93512 23.6342 -1.45828 -6.44166 29.4506 -63.7278 0.89722 23.9628 -0.190409 5.90948 -0.17041 0.735283 -0.753391 -3.48629 3.51614 0.0 0.0 0.0 2.81916 17.4078 1.94037 -5.72467 0.193013 0.857003 24.5131 9.25365 -3.27732 -0.973558 0.0 0.0 -0.0 0.0 -0.0 7.2452 10.5519 0.29782 -0.667675 -0.0269159 -0.0989267 -4.79538 6.35636 -0.733752 32.5614 -0.0 -0.0 0.0 0.0 0.0 
3551.05 760.838 -351.539 -0.237931 51.4346 5.32532 -2.13141 -0.278533 -2.37447 -2.12828 -0.126919 -2.38737 -2.1197 0.464966 -2.34511 -2.12737 0.0888741 -2.38909 8.0968 14.6114 3.32492 8.71484 21.4541 4.13065 -0.0 0.0 -0.0 7.24597 17.3176 13.3591 -8.7408 -28.2409 70.0417 0.8951 -23.9125 0.189549 10.1495 0.245529 -1.27157 1.70788 1.73257 12.175 -0.0 0.0 -0.0 1.9338 23.5483 -1.46438 -6.35738 29.5018 -63.8959 0.942019 25.0157 -0.20898 5.78974 -0.167713 0.720226 -0.711571 -3.34146 3.30246 0.0 0.0 0.0 2.90615 17.4156 2.05388 -6.2765 0.20707 0.940522 26.0812 9.13427 -3.45851 -0.860101 0.0 0.0 -0.0 0.0 -0.0 7.24281 10.443 0.577403 -0.931471 -0.0372319 -0.138096 -4.94218 6.14199 -0.755688 32.6501 -0.0 -0.0 0.0 0.0 0.0 
3545.72 758.96 -352.578 0.426799 50.6604 4.80164 -2.12981 -0.388365 -2.33876 -2.1268 -0.238799 -2.35872 -2.11357 0.349128 -2.34494 -2.12124 -0.0254841 -2.37063 8.20892 14.6249 3.25926 8.83487 21.5079 4.04275 -0.0 0.0 -0.0 7.0698 17.1417 13.0883 -9.08972 -28.1685 69.7638 0.896063 -23.9353 0.189939 10.5787 0.250915 -1.32612 1.71836 1.53486 12.1684 -0.0 0.0 -0.0 1.99996 23.7734 -1.5842 -6.37262 29.4948 -64.0582 0.966337 25.5798 -0.219372 5.60867 -0.163575 0.697466 -0.821751 -3.25763 4.06877 0.0 0.0 0.0 2.27 17.5044 1.95573 -6.45136 0.211356 0.967014 25.6229 7.63355 -3.40313 -1.30524 0.0 0.0 -0.0 0.0 -0.0 6.91553 10.3369 0.39452 -0.97318 -0.0388463 -0.144293 -5.23587 5.52173 -0.79883 32.5898 -0.0 -0.0 0.0 0.0 0.0 
3539.61 758.563 -354.915 -0.268871 50.6307 5.28954 -1.83247 -0.449969 -2.38801 -1.82935 -0.297147 -2.41179 -1.81347 0.292959 -2.4123 -1.82157 -0.091579 -2.42829 8.55453 14.7501 3.1153 9.21031 21.7612 3.84016 -0.0 0.0 -0.0 7.21145 18.1462 13.2377 -9.97003 -29.3359 69.2452 0.87322 -23.3915 0.180771 11.5353 0.26145 -1.44786 1.73005 1.27283 12.1445 -0.0 0.0 -0.0 1.90815 22.9455 -1.47154 -6.22633 28.3098 -64.7728 0.993315 26.1994 -0.231152 6.36398 -0.180359 0.792489 -0.908546 -2.31682 5.05861 0.0 0.0 0.0 1.86549 17.9301 2.61129 -5.63847 0.190745 0.843969 30.0159 5.82572 -3.88982 -3.37933 0.0 0.0 -0.0 0.0 -0.0 6.96018 10.037 0.723479 -1.08952 -0.0433261 -0.161585 -3.59976 3.67811 -0.543278 33.4604 -0.0 -0.0 0.0 0.0 0.0 
3534.89 756.417 -357.082 -0.335334 49.5689 4.85446 -1.81259 -0.399612 -2.46782 -1.80923 -0.241818 -2.48823 -1.79526 0.364362 -2.47327 -1.80379 -0.0306911 -2.49976 8.29684 16.525 6.29704 8.92427 21.9162 7.68207 -0.0 0.0 -0.0 7.45435 18.0244 13.6349 -11.3933 -31.6483 67.9461 0.870225 -23.3199 0.179584 13.6074 0.277292 -1.71203 1.8814 1.67669 13.3373 -0.0 0.0 -0.0 2.60339 23.114 -2.95828 -5.00152 25.5573 -65.0782 0.886938 23.7186 -0.186253 5.0318 -0.149913 0.625041 -1.21847 -4.52697 6.13221 0.0 0.0 0.0 1.97732 17.9061 2.8169 -7.26094 0.230145 1.08983 36.2565 4.93949 -4.51897 -7.66102 0.0 0.0 -0.0 0.0 -0.0 6.9124 10.3313 0.789354 -1.61597 -0.063156 -0.239944 -0.859783 0.594474 -0.127662 34.3108 -0.0 -0.0 0.0 0.0 0.0 
3524.41 754.674 -353.87 -0.957743 48.6074 5.18766 -1.71389 -0.177363 -2.35628 -1.7108 -0.02711 -2.36278 -1.70695 0.539149 -2.30064 -1.71429 0.169145 -2.35688 8.31469 17.2166 6.68216 8.99292 22.7243 8.13495 -0.0 0.0 -0.0 6.91132 18.6514 12.7243 -12.1153 -34.3231 67.8293 0.980253 -25.9002 0.225416 15.5103 0.283418 -1.955 2.09487 -1.01137 13.7345 -0.0 0.0 -0.0 1.65564 23.1164 -0.907274 -6.62624 27.8841 -65.3659 0.999256 26.335 -0.233781 4.21473 -0.129315 0.522701 -0.807146 -0.379654 5.2317 0.0 0.0 0.0 2.3295 17.5518 3.15285 -8.24101 0.250566 1.23884 39.2997 0.788327 -4.80987 -9.15335 0.0 0.0 -0.0 0.0 -0.0 7.02276 10.4613 1.93818 -1.22805 -0.0486137 -0.182187 -0.610915 1.57033 -0.0909145 34.9116 -0.0 -0.0 0.0 0.0 0.0 
3513.54 755.791 -356.123 -0.851908 48.0427 4.84883 -1.6683 -0.122564 -2.57356 -1.66461 0.0413913 -2.57614 -1.6634 0.654949 -2.49189 -1.67197 0.253317 -2.564 8.43598 18.2069 7.54733 9.17196 23.5588 9.15834 -0.0 0.0 -0.0 6.86282 19.6646 12.5716 -13.6633 -36.6256 67.0529 1.07192 -27.9674 0.266943 16.6531 0.283218 -2.10096 2.19209 -1.98394 14.0117 -0.0 0.0 -0.0 1.39766 22.9092 -0.370602 -6.96404 26.6262 -65.3757 1.01509 26.6947 -0.240848 3.58075 -0.112328 0.443499 -0.735218 1.51552 5.57595 0.0 0.0 0.0 1.50117 17.4609 3.83463 -8.9027 0.26291 1.33962 41.6491 -0.728017 -5.02028 -10.8163 0.0 0.0 -0.0 0.0 -0.0 6.94969 10.2505 2.65338 -1.35544 -0.0534329 -0.201144 0.469778 -0.124849 0.0693924 35.7694 -0.0 -0.0 0.0 0.0 0.0 
3503.72 751.974 -355.613 -1.17154 48.3859 4.52045 -1.45618 -0.310778 -2.54368 -1.4526 -0.148341 -2.55829 -1.4428 0.456547 -2.52162 -1.45167 0.0527116 -2.56204 8.74941 18.4789 7.2577 9.53546 24.1763 8.78804 -0.0 0.0 -0.0 6.78712 21.8606 12.28 -13.704 -38.282 66.6927 1.11121 -28.8301 0.285629 17.5869 0.280893 -2.2202 2.05887 -2.42847 12.9097 -0.0 0.0 -0.0 1.31151 22.6832 -0.207992 -6.23566 23.6733 -66.4594 0.926673 24.657 -0.202534 3.5348 -0.111063 0.437766 -0.749635 2.7698 6.21948 0.0 0.0 0.0 0.337859 17.4011 5.17844 -5.98888 0.199843 0.896974 38.034 -1.04492 -4.71131 -12.5274 0.0 0.0 -0.0 0.0 -0.0 7.64424 9.99083 2.70757 -2.2012 -0.0843535 -0.327258 2.73442 -3.20393 0.398984 37.1184 -0.0 -0.0 0.0 0.0 0.0 
